<svg version="1.2" xmlns="http://www.w3.org/2000/svg" xmlns:xlink="http://www.w3.org/1999/xlink" overflow="visible" preserveAspectRatio="none" viewBox="0 0 24 24" width="35" height="35"><g><path xmlns:default="http://www.w3.org/2000/svg" id="hourglass-half" d="M19.66,4c0.18,0.01,0.33-0.12,0.34-0.3c0-0.01,0-0.02,0-0.03V3c0.01-0.18-0.13-0.32-0.31-0.33  c-0.01,0-0.01,0-0.02,0H4.34C4.16,2.66,4.01,2.79,4,2.97C4,2.98,4,2.99,4,3v0.67C3.99,3.85,4.13,3.99,4.31,4c0.01,0,0.02,0,0.03,0h1  C5.31,5.67,5.69,7.32,6.45,8.8c0.64,1.28,1.59,2.38,2.77,3.2c-1.18,0.81-2.13,1.91-2.77,3.19C5.69,16.68,5.31,18.33,5.34,20h-1  c-0.18-0.01-0.32,0.13-0.33,0.31c0,0.01,0,0.01,0,0.02V21C4,21.18,4.14,21.32,4.32,21.33c0.01,0,0.01,0,0.02,0h15.32  c0.18,0.01,0.33-0.12,0.34-0.3c0-0.01,0-0.02,0-0.03v-0.67c0.01-0.18-0.13-0.32-0.31-0.33c-0.01,0-0.02,0-0.03,0h-1  c0.03-1.67-0.35-3.32-1.11-4.8c-0.64-1.28-1.59-2.38-2.77-3.2c1.18-0.81,2.13-1.91,2.77-3.19c0.76-1.49,1.14-3.14,1.11-4.81H19.66z   M17.33,4c0.01,1.38-0.29,2.75-0.88,4h-8.9C6.96,6.75,6.66,5.38,6.67,4H17.33z M16.74,16.66H7.26c0.34-0.92,0.85-1.78,1.51-2.51  c0.55-0.64,1.23-1.14,2-1.48h2.43c0.77,0.34,1.45,0.84,2,1.48c0.66,0.73,1.17,1.59,1.51,2.51l0,0H16.74z" style="fill: rgb(255, 255, 255);" vector-effect="non-scaling-stroke"/></g></svg>